<svg width="80" height="80" viewBox="0 0 80 80" fill="none" xmlns="http://www.w3.org/2000/svg">
<path d="M6.66667 23.1667C6.66667 20.2233 6.66667 18.7533 6.9 17.5267C7.39742 14.8928 8.67713 12.47 10.5722 10.5744C12.4672 8.67871 14.8896 7.39824 17.5233 6.9C18.7533 6.66667 20.2267 6.66667 23.1667 6.66667C24.4533 6.66667 25.1 6.66667 25.72 6.72334C28.3902 6.97411 30.9226 8.02427 32.9867 9.73667C33.4667 10.1333 33.92 10.5867 34.8333 11.5L36.6667 13.3333C39.3867 16.0533 40.7467 17.4133 42.3733 18.3167C43.2674 18.815 44.2159 19.2087 45.2 19.49C46.9933 20 48.9167 20 52.76 20H54.0067C62.78 20 67.17 20 70.02 22.5667C70.2844 22.8 70.5333 23.0489 70.7667 23.3133C73.3333 26.1633 73.3333 30.5533 73.3333 39.3267V46.6667C73.3333 59.2367 73.3333 65.5233 69.4267 69.4267C65.52 73.33 59.2367 73.3333 46.6667 73.3333H33.3333C20.7633 73.3333 14.4767 73.3333 10.5733 69.4267C6.67 65.52 6.66667 59.2367 6.66667 46.6667V23.1667Z" stroke="#787A80" stroke-width="4"/>
<path d="M35 50L45 40M45 50L35 40" stroke="#787A80" stroke-width="4" stroke-linecap="round"/>
</svg>
