<svg width="80" height="80" viewBox="0 0 80 80" fill="none" xmlns="http://www.w3.org/2000/svg">
<path d="M40 72C40.3413 72 40.68 71.9947 41.016 71.984C39.9188 70.6544 38.9817 69.2004 38.224 67.652C36.08 66.824 33.832 64.48 31.912 60.368C30.9766 58.3173 30.2295 56.1859 29.68 54H36.368C36.624 52.6133 37.0027 51.28 37.504 50H28.824C28.2706 46.6955 27.995 43.3505 28 40C28 36.468 28.292 33.1 28.824 30H51.176C51.544 32.164 51.8 34.46 51.92 36.852C53.2 36.484 54.5227 36.2333 55.888 36.1C55.7656 34.0573 55.5454 32.0216 55.228 30H66.16C67.164 32.624 67.784 35.44 67.952 38.376C69.4 39.112 70.744 39.992 71.984 41.016C72.1863 34.6469 70.4825 28.3625 67.0908 22.9678C63.6991 17.5732 58.7741 13.314 52.9466 10.7359C47.1191 8.15781 40.6547 7.37827 34.3814 8.49715C28.1081 9.61603 22.3117 12.5824 17.7349 17.0161C13.158 21.4499 10.0091 27.1492 8.69159 33.3837C7.37407 39.6183 7.94794 46.1043 10.3397 52.0107C12.7314 57.9171 16.8321 62.9749 22.1163 66.5362C27.4006 70.0975 33.6277 72 40 72ZM40 12C42.628 12 45.628 14.36 48.088 19.632C48.956 21.496 49.712 23.64 50.324 26H29.676C30.288 23.64 31.044 21.496 31.916 19.632C34.368 14.36 37.368 12 40 12ZM28.288 17.94C27.1068 20.5272 26.1914 23.2278 25.556 26H15.744C19.1204 20.163 24.4845 15.736 30.856 13.528C29.892 14.848 29.032 16.344 28.288 17.94ZM24.768 30C24.2508 33.3081 23.994 36.6517 24 40C24 43.48 24.268 46.848 24.772 50H13.84C12.6215 46.8069 11.9979 43.4177 12 40C12 36.48 12.652 33.104 13.84 30H24.768ZM25.556 54C26.26 56.972 27.184 59.688 28.288 62.06C29.032 63.656 29.892 65.152 30.856 66.472C24.4845 64.264 19.1204 59.837 15.744 54H25.556ZM49.144 13.528C55.5155 15.736 60.8796 20.163 64.256 26H54.44C53.8046 23.2278 52.8892 20.5272 51.708 17.94C50.9965 16.3898 50.1365 14.9123 49.14 13.528M76 58C76 62.7739 74.1036 67.3523 70.7279 70.7279C67.3523 74.1036 62.7739 76 58 76C53.2261 76 48.6477 74.1036 45.2721 70.7279C41.8964 67.3523 40 62.7739 40 58C40 53.2261 41.8964 48.6477 45.2721 45.2721C48.6477 41.8964 53.2261 40 58 40C62.7739 40 67.3523 41.8964 70.7279 45.2721C74.1036 48.6477 76 53.2261 76 58ZM58 48C57.4696 48 56.9609 48.2107 56.5858 48.5858C56.2107 48.9609 56 49.4696 56 50V58C56 58.5304 56.2107 59.0391 56.5858 59.4142C56.9609 59.7893 57.4696 60 58 60C58.5304 60 59.0391 59.7893 59.4142 59.4142C59.7893 59.0391 60 58.5304 60 58V50C60 49.4696 59.7893 48.9609 59.4142 48.5858C59.0391 48.2107 58.5304 48 58 48ZM58 68.5C58.663 68.5 59.2989 68.2366 59.7678 67.7678C60.2366 67.2989 60.5 66.663 60.5 66C60.5 65.337 60.2366 64.7011 59.7678 64.2322C59.2989 63.7634 58.663 63.5 58 63.5C57.337 63.5 56.7011 63.7634 56.2322 64.2322C55.7634 64.7011 55.5 65.337 55.5 66C55.5 66.663 55.7634 67.2989 56.2322 67.7678C56.7011 68.2366 57.337 68.5 58 68.5Z" fill="#787A80"/>
</svg>
