<svg width="80" height="80" viewBox="0 0 80 80" fill="none" xmlns="http://www.w3.org/2000/svg">
<path d="M50 70H13.3333C11.5652 70 9.86952 69.2976 8.61928 68.0474C7.36904 66.7971 6.66666 65.1014 6.66666 63.3333V16.6667C6.66666 14.8986 7.36904 13.2029 8.61928 11.9526C9.86952 10.7024 11.5652 10 13.3333 10H66.6667C68.4348 10 70.1305 10.7024 71.3807 11.9526C72.6309 13.2029 73.3333 14.8986 73.3333 16.6667V50" stroke="#787A80" stroke-width="4" stroke-linecap="round"/>
<path d="M6.66666 23.3333H73.3333M16.6667 16.7L16.7 16.6633M26.6667 16.7L26.7 16.6633M36.6667 16.7L36.7 16.6633M60 74.1433L67.07 67.07M67.07 67.07L74.1433 60M67.07 67.07L60 60M67.07 67.07L74.1433 74.1433" stroke="#787A80" stroke-width="4" stroke-linecap="round" stroke-linejoin="round"/>
</svg>
